<svg fill="#000000" viewBox="0 0 24 24" role="img" xmlns="http://www.w3.org/2000/svg">
  <g id="SVGRepo_bgCarrier" stroke-width="0"></g>
  <g id="SVGRepo_tracerCarrier" stroke-linecap="round" stroke-linejoin="round"></g>
  <g id="SVGRepo_iconCarrier">
    <!-- First block (Yellow) -->
    <path d="M4.5 7.5A1.5 1.5 0 0 1 6 9v10.5A1.5 1.5 0 0 1 4.5 21h-3C.673 21 0 20.328 0 19.5V9c0-.828.673-1.5 1.5-1.5h3z" fill="#FFEB3B"></path>
    <!-- Second block (Blue) -->
    <path d="M9 3A1.5 1.5 0 0 1 15 4.5v15a1.5 1.5 0 0 1-1.5 1.5h-3c-.827 0-1.5-.672-1.5-1.5v-15c0-.828.673-1.5 1.5-1.5h3z" fill="#2196F3"></path>
    <!-- Third block (Red) -->
    <path d="M21 12A1.5 1.5 0 0 1 24 12v7.5a1.5 1.5 0 0 1-1.5 1.5h-3a1.5 1.5 0 0 1-1.5-1.5V12a1.5 1.5 0 0 1 1.5-1.5h3z" fill="#F44336"></path>
  </g>
</svg>
